<?xml version="1.0" encoding="UTF-8" standalone="no"?>
<svg
   xmlns:dc="http://purl.org/dc/elements/1.1/"
   xmlns:cc="http://creativecommons.org/ns#"
   xmlns:rdf="http://www.w3.org/1999/02/22-rdf-syntax-ns#"
   xmlns:svg="http://www.w3.org/2000/svg"
   xmlns="http://www.w3.org/2000/svg"
   xmlns:xlink="http://www.w3.org/1999/xlink"
   xmlns:sodipodi="http://sodipodi.sourceforge.net/DTD/sodipodi-0.dtd"
   xmlns:inkscape="http://www.inkscape.org/namespaces/inkscape"
   height="305.02097"
   width="306.4751"
   version="1.1"
   id="svg4552"
   sodipodi:docname="movie-romance.svg"
   inkscape:version="0.92.1 r15371">
  <metadata
     id="metadata4556">
    <rdf:RDF>
      <cc:Work
         rdf:about="">
        <dc:format>image/svg+xml</dc:format>
        <dc:type
           rdf:resource="http://purl.org/dc/dcmitype/StillImage" />
        <dc:title></dc:title>
      </cc:Work>
    </rdf:RDF>
  </metadata>
  <sodipodi:namedview
     pagecolor="#ffffff"
     bordercolor="#666666"
     borderopacity="1"
     objecttolerance="10"
     gridtolerance="10"
     guidetolerance="10"
     inkscape:pageopacity="0"
     inkscape:pageshadow="2"
     inkscape:window-width="1366"
     inkscape:window-height="706"
     id="namedview4554"
     showgrid="false"
     fit-margin-top="0"
     fit-margin-left="0"
     fit-margin-right="0"
     fit-margin-bottom="0"
     inkscape:zoom="0.27616581"
     inkscape:cx="1056.8363"
     inkscape:cy="133.01503"
     inkscape:window-x="-8"
     inkscape:window-y="-8"
     inkscape:window-maximized="1"
     inkscape:current-layer="g4577"
     inkscape:snap-global="false" />
  <defs
     id="defs4512">
    <linearGradient
       id="a">
      <stop
         stop-color="#fdfdfd"
         offset="0"
         id="stop4485" />
      <stop
         stop-color="#d4d4d4"
         offset="1"
         id="stop4487" />
    </linearGradient>
    <radialGradient
       id="c"
       cx="27.216"
       gradientUnits="userSpaceOnUse"
       cy="35.673"
       r="19.570999"
       gradientTransform="matrix(2.8831,0,0,2.136,-64.968,-52.486)">
      <stop
         stop-color="#5d5d5d"
         offset="0"
         id="stop4490" />
      <stop
         stop-color="#444"
         offset="1"
         id="stop4492" />
    </radialGradient>
    <linearGradient
       id="d"
       y2="49.143002"
       gradientUnits="userSpaceOnUse"
       y1="13.143"
       x2="21.535999"
       x1="5.4629998">
      <stop
         stop-color="#fff"
         offset="0"
         id="stop4495" />
      <stop
         stop-color="#fff"
         stop-opacity="0"
         offset="1"
         id="stop4497" />
    </linearGradient>
    <radialGradient
       id="b"
       cx="24.643"
       gradientUnits="userSpaceOnUse"
       cy="44.285999"
       r="22.070999"
       gradientTransform="matrix(1,0,0,0.20712,0,35.113)">
      <stop
         offset="0"
         id="stop4500" />
      <stop
         stop-opacity="0"
         offset="1"
         id="stop4502" />
    </radialGradient>
    <linearGradient
       id="g"
       y2="11.107"
       gradientUnits="userSpaceOnUse"
       y1="15.929"
       x2="7.9289999"
       x1="10.679">
      <stop
         stop-color="#939393"
         offset="0"
         id="stop4505" />
      <stop
         stop-color="#d9d9d9"
         offset="1"
         id="stop4507" />
    </linearGradient>
    <linearGradient
       id="e"
       y2="18.693001"
       xlink:href="#a"
       gradientUnits="userSpaceOnUse"
       y1="6.1100001"
       x2="18.773001"
       x1="2.7609999" />
    <linearGradient
       id="f"
       y2="18.693001"
       xlink:href="#a"
       gradientUnits="userSpaceOnUse"
       y1="6.1100001"
       gradientTransform="translate(-0.6,-0.578)"
       x2="18.773001"
       x1="2.7609999" />
    <filter
       color-interpolation-filters="sRGB"
       inkscape:collect="always"
       id="filter4959">
      <feGaussianBlur
         inkscape:collect="always"
         stdDeviation="3.335792"
         id="feGaussianBlur4961" />
    </filter>
    <linearGradient
       id="linearGradient2997-8">
      <stop
         offset="0"
         style="stop-color:#b20506"
         id="stop2999-1" />
      <stop
         offset="1"
         style="stop-color:#b20506;stop-opacity:.55649"
         id="stop3001-5" />
    </linearGradient>
    <linearGradient
       inkscape:collect="always"
       id="linearGradient3026">
      <stop
         offset="0"
         style="stop-color:#e04a87"
         id="stop3028" />
      <stop
         offset="1"
         style="stop-color:#e04a87;stop-opacity:0"
         id="stop3030" />
    </linearGradient>
    <filter
       inkscape:collect="always"
       height="1.8928"
       x="-.32738"
       y="-.44639"
       width="1.6548"
       color-interpolation-filters="sRGB"
       id="filter4014">
      <feGaussianBlur
         inkscape:collect="always"
         stdDeviation="6.2396289"
         id="feGaussianBlur4016" />
    </filter>
    <filter
       inkscape:collect="always"
       height="1.8928"
       x="-.32738"
       y="-.44639"
       width="1.6548"
       color-interpolation-filters="sRGB"
       id="filter4018">
      <feGaussianBlur
         inkscape:collect="always"
         stdDeviation="6.2396289"
         id="feGaussianBlur4020" />
    </filter>
    <filter
       inkscape:collect="always"
       color-interpolation-filters="sRGB"
       id="filter4124">
      <feGaussianBlur
         inkscape:collect="always"
         stdDeviation="0.7725244"
         id="feGaussianBlur4126" />
    </filter>
    <filter
       inkscape:collect="always"
       color-interpolation-filters="sRGB"
       id="filter4120">
      <feGaussianBlur
         inkscape:collect="always"
         stdDeviation="0.7725244"
         id="feGaussianBlur4122" />
    </filter>
    <linearGradient
       id="linearGradient4150">
      <stop
         offset="0"
         style="stop-color:#da4175"
         id="stop4154" />
      <stop
         offset="1"
         style="stop-color:#b20506"
         id="stop4152" />
    </linearGradient>
    <radialGradient
       inkscape:collect="always"
       xlink:href="#linearGradient2997-8"
       id="radialGradient5119"
       gradientUnits="userSpaceOnUse"
       gradientTransform="matrix(2.7072,-0.1617,0.10664,1.7855,-1440.7,87.196)"
       cx="827.56"
       cy="73.756"
       r="72.554" />
    <radialGradient
       inkscape:collect="always"
       xlink:href="#linearGradient3026"
       id="radialGradient5121"
       gradientUnits="userSpaceOnUse"
       gradientTransform="matrix(0.85363,-0.0053249,0.0049559,0.79447,221.36,32.232)"
       cx="631.34"
       cy="137.41"
       r="72.554" />
    <radialGradient
       inkscape:collect="always"
       xlink:href="#linearGradient4150"
       id="radialGradient5123"
       gradientUnits="userSpaceOnUse"
       gradientTransform="matrix(0.20509,-0.028817,0.024828,0.1767,565.34,113.01)"
       cx="671.53"
       cy="214.24"
       r="17.603" />
    <radialGradient
       inkscape:collect="always"
       xlink:href="#linearGradient2997-8"
       id="radialGradient5125"
       gradientUnits="userSpaceOnUse"
       gradientTransform="matrix(2.7072,-0.1617,0.10664,1.7855,-1440.7,87.196)"
       cx="827.56"
       cy="73.756"
       r="72.554" />
    <radialGradient
       inkscape:collect="always"
       xlink:href="#linearGradient3026"
       id="radialGradient5127"
       gradientUnits="userSpaceOnUse"
       gradientTransform="matrix(0.85363,-0.0053249,0.0049559,0.79447,221.36,32.232)"
       cx="631.34"
       cy="137.41"
       r="72.554" />
    <radialGradient
       inkscape:collect="always"
       xlink:href="#linearGradient4150"
       id="radialGradient5129"
       gradientUnits="userSpaceOnUse"
       gradientTransform="matrix(0.18877,0.085201,-0.073408,0.16264,646.25,56.375)"
       cx="671.53"
       cy="214.24"
       r="17.603" />
  </defs>
  <g
     id="g4577"
     transform="matrix(6.9407415,0,0,6.3552904,-17.754691,-0.03363093)">
    <path
       id="path4514"
       transform="translate(0,-0.857)"
       display="block"
       d="m 46.714,44.286 a 22.0715,4.5711036 0 1 1 -44.143,0 22.0715,4.5711036 0 1 1 44.143,0 z"
       style="color:#000000;display:block;opacity:0.744;fill:url(#b)"
       inkscape:connector-curvature="0" />
    <rect
       id="rect4516"
       display="block"
       x="5.4289999"
       y="16.570999"
       width="38.143002"
       ry="1.143"
       rx="1.143"
       height="28"
       style="color:#000000;display:block;fill:url(#c);stroke:#1b1b1b" />
    <rect
       id="rect4518"
       display="block"
       x="6.3920002"
       y="17.489"
       width="36.073002"
       ry="0.27399999"
       rx="0.27399999"
       height="26.059999"
       style="color:#000000;display:block;opacity:0.31199999;fill:none;stroke:url(#d)" />
    <g
       id="g4528"
       transform="matrix(-0.97271112,0.23201954,0.23201954,0.97271112,45.786005,5.1105872)">
      <rect
         id="rect4520"
         display="block"
         x="1.705"
         y="10.353"
         height="6.5089998"
         width="39.806"
         ry="1.143"
         rx="1.143"
         transform="rotate(-12.991)"
         style="color:#000000;display:block;fill:url(#e);stroke:#2b2b2b" />
      <path
         id="path4522"
         d="m 9.19,8.97 -2.43,6.57 4.714,-1.286 2.429,-6.286 -4.714,1 z m 9.142,-2.072 -2.285,6.5 4.714,-1.143 2.286,-6.357 z m 9.572,-2.214 -2.286,6.428 4.714,-1.143 2.286,-6.285 z"
         inkscape:connector-curvature="0"
         style="fill-rule:evenodd" />
      <path
         id="path4524"
         display="block"
         d="m 39.413,2.018 c 0.229,0.156 0.401,0.364 0.469,0.657 l 0.732,3.075 -0.723,2 -4.688,1.085 2.281,-6.357 z"
         inkscape:connector-curvature="0"
         style="color:#000000;display:block" />
      <rect
         id="rect4526"
         display="block"
         x="2.6719999"
         y="11.327"
         height="4.6069999"
         width="37.842999"
         transform="rotate(-12.991)"
         rx="0.26499999"
         ry="0.26499999"
         style="color:#000000;display:block;fill:none;stroke:#ffffff;stroke-opacity:0.575" />
    </g>
    <rect
       id="rect4530"
       display="block"
       x="0.67000002"
       y="9.6850004"
       height="6.9419999"
       width="40.077"
       ry="1.143"
       rx="1.143"
       transform="rotate(-12.991)"
       style="color:#000000;display:block;fill:url(#f);stroke:#2e2e2e" />
    <path
       id="path4532"
       d="m 10.143,8.143 -2.429,6.571 4.715,-1.285 2.428,-6.286 z m 9.286,-2.357 -2.643,7 4.714,-1.143 2.643,-6.857 z m 9.642,-2.143 -2.571,7.143 4.714,-1.143 2.572,-7 z"
       inkscape:connector-curvature="0"
       style="fill-rule:evenodd" />
    <path
       id="path4534"
       display="block"
       d="m 41.295,0.978 c 0.229,0.156 0.401,0.363 0.468,0.656 l 0.661,2.647 -1.08,2.786 -5.116,1.228 2.352,-6.715 z"
       inkscape:connector-curvature="0"
       style="color:#000000;display:block" />
    <rect
       id="rect4536"
       display="block"
       x="1.637"
       y="10.659"
       height="4.915"
       width="38.199001"
       transform="rotate(-12.991)"
       rx="0.26499999"
       ry="0.26499999"
       style="color:#000000;display:block;fill:none;stroke:#ffffff;stroke-opacity:0.575" />
    <path
       id="path4538"
       d="m 6.536,10.893 v 7.786 a 0.96,0.96 0 0 0 0.857,0.928 h 7.893 c 0.863,0 1.274,-1.262 0.607,-1.928 L 9.679,10.393 C 8.714,9 6.536,9.679 6.536,10.893 Z"
       style="fill:url(#g);fill-rule:evenodd;stroke:#1b1b1b"
       inkscape:connector-curvature="0" />
    <path
       id="path4540"
       display="block"
       d="m 8.964,12.232 a 0.482,0.482 0 1 1 -0.964,0 0.482,0.482 0 1 1 0.964,0 z m 0,5.285 a 0.482,0.482 0 1 1 -0.964,0 0.482,0.482 0 1 1 0.964,0 z m 5.036,0 a 0.482,0.482 0 1 1 -0.964,0 0.482,0.482 0 1 1 0.964,0 z"
       inkscape:connector-curvature="0"
       style="color:#000000;display:block;fill:#ffffff" />
    <g
       transform="matrix(0.06392585,0,0,0.06676616,-71.097945,0.24766331)"
       inkscape:label="Ebene 1"
       id="layer1-9">
      <g
         transform="matrix(1.3442,-0.23938,0.23938,1.3442,1272.5642,381.94377)"
         id="loveletter">
        <path
           d="m 122.79,18.711 c -2.3443,-0.02055 -4.6442,0.19338 -6.875,0.625 -22.44,4.3417 -30.75,27.719 -30.75,27.719 0,0 -17.82,-17.992 -45.406,-4.875 -18.797,8.9377 -24.04,31.28 -19.5,47.906 150.7278,228.16563 177.96659,110.84625 263.4727,39.37665 7.544,-15.496 6.5325,-38.388 -10.281,-50.656 -24.675,-18.005 -45.562,-3.6562 -45.562,-3.6562 0,0 -3.7858,-24.51 -25.031,-32.938 -11.769,-4.6686 -27.256,-2.5732 -38.812,4.1875 -0.25634,-0.79838 -0.53455,-1.607 -0.84375,-2.375 -5.811,-14.434 -23.996,-25.169 -40.406,-25.312 z m 25.656,102.41 c 35.31365,128.14448 -41.73861,85.83764 5e-4,-3.5e-4 z"
           inkscape:connector-curvature="0"
           style="opacity:0.5;fill:#333333;filter:url(#filter4959)"
           id="path3447"
           sodipodi:nodetypes="cccccccccccccccc" />
        <g
           transform="translate(-585.08,41.292)"
           id="g4348">
          <g
             transform="translate(-2.9962,-5.2434)"
             id="g4181">
            <g
               transform="matrix(-0.99337,-0.11498,-0.11498,0.99337,1478.4,71.12)"
               id="g4128">
              <path
                 d="m 758.21,146.92 c 0,0 -47.69,-89.221 -26.966,-127.34 8.494,-15.623 32.481,-24.583 49.812,-19.101 21.792,6.8931 27.34,31.086 27.34,31.086 0,0 19.798,-15.827 45.692,0.37453 17.645,11.04 20.279,33.818 13.858,49.812 -15.86,39.478 -109.74,65.168 -109.74,65.168 z"
                 inkscape:connector-curvature="0"
                 style="fill:url(#radialGradient5119)"
                 sodipodi:nodetypes="cascsac"
                 id="path4130" />
              <path
                 d="m 768.2,0.88665 c -18.189,0.73615 -37.186,12.832 -39.312,32.094 -3.5013,26.425 5.7672,52.666 14.807,77.054 4.6226,11.733 9.8022,23.292 15.537,34.508 32.19,-10.062 64.93,-22.006 91.375,-43.625 12.263,-9.7265 20.728,-25.364 18.188,-41.437 -1.2638,-14.876 -12.69,-27.139 -26.938,-31.062 -11.699,-3.811 -25.307,-1.4288 -34.75,6.625 -3.3631,-18.374 -18.907,-35.729 -38.906,-34.156 z"
                 inkscape:connector-curvature="0"
                 style="fill:url(#radialGradient5121)"
                 id="path4132" />
              <ellipse
                 transform="matrix(0.80338,0.22325,-0.22325,0.80338,256.9,-127.89)"
                 style="color:#000000;opacity:0.3;fill:#ffffff;filter:url(#filter4014)"
                 id="path4134"
                 cx="642.47882"
                 cy="12.447033"
                 rx="23.305084"
                 ry="16.154661" />
              <ellipse
                 transform="matrix(0.80338,0.22325,-0.22325,0.80338,324.11,-102.18)"
                 style="color:#000000;opacity:0.3;fill:#ffffff;filter:url(#filter4018)"
                 id="path4136"
                 cx="642.47882"
                 cy="12.447033"
                 rx="23.305084"
                 ry="16.154661" />
            </g>
            <path
               transform="matrix(0.81673,-0.57703,0.57703,0.81673,115.26,370.99)"
               inkscape:connector-curvature="0"
               sodipodi:nodetypes="cacacac"
               d="m 659.42,28.289 c 0,0 -4.226,-10.452 -7.4905,-14.981 -3.1,-4.297 -11.24,-11.236 -11.24,-11.236 0,0 -4.3773,-1.5564 -5.9924,-0.37453 -1.2462,0.91188 -1.1236,4.4943 -1.1236,4.4943 0,0 9.6982,5.1096 13.858,8.6141 4.5985,3.8745 11.985,13.483 11.985,13.483 z"
               style="opacity:0.7;fill:#ffffff;filter:url(#filter4124)"
               id="path4142" />
            <path
               transform="matrix(0.59622,-0.80282,0.80282,0.59622,298.27,572.36)"
               inkscape:connector-curvature="0"
               sodipodi:nodetypes="cscac"
               d="m 701.54,-32.839 c 0,0 10.323,4.2689 15.095,9.5339 10.489,11.572 8.4746,30.705 8.4746,30.705 0,0 -5.1512,-17.725 -9.9805,-25.454 -3.5471,-5.6768 -13.589,-14.785 -13.589,-14.785 z"
               style="opacity:0.7;fill:#ffffff;filter:url(#filter4120)"
               id="path4144" />
            <path
               d="m 707.95,128.4 c -1.9938,0.28015 -3.4121,1.9035 -3.1707,3.6214 0.14707,1.0467 0.87593,1.8867 1.8751,2.3212 0.51639,-0.38545 1.1549,-0.65779 1.8673,-0.75788 0.77714,-0.10919 1.524,0.004 2.1637,0.28162 0.93077,-0.69336 1.4659,-1.7536 1.3106,-2.8589 -0.24138,-1.7179 -2.0521,-2.8876 -4.046,-2.6074 z"
               inkscape:connector-curvature="0"
               style="color:#000000;fill:url(#radialGradient5123);fill-opacity:0.87058997"
               id="path4148" />
          </g>
          <g
             transform="rotate(4.0841799,798.57535,75.249482)"
             id="g4171">
            <g
               id="g4088">
              <path
                 inkscape:connector-curvature="0"
                 style="fill:url(#radialGradient5125)"
                 sodipodi:nodetypes="cascsac"
                 d="m 758.21,146.92 c 0,0 -47.69,-89.221 -26.966,-127.34 8.494,-15.623 32.481,-24.583 49.812,-19.101 21.792,6.8931 27.34,31.086 27.34,31.086 0,0 19.798,-15.827 45.692,0.37453 17.645,11.04 20.279,33.818 13.858,49.812 -15.86,39.478 -109.74,65.168 -109.74,65.168 z"
                 id="path2987-7" />
              <path
                 inkscape:connector-curvature="0"
                 style="fill:url(#radialGradient5127)"
                 d="m 768.2,0.88665 c -18.189,0.73615 -37.186,12.832 -39.312,32.094 -3.5013,26.425 5.7672,52.666 14.807,77.054 4.6226,11.733 9.8022,23.292 15.537,34.508 32.19,-10.062 64.93,-22.006 91.375,-43.625 12.263,-9.7265 20.728,-25.364 18.188,-41.437 -1.2638,-14.876 -12.69,-27.139 -26.938,-31.062 -11.699,-3.811 -25.307,-1.4288 -34.75,6.625 -3.3631,-18.374 -18.907,-35.729 -38.906,-34.156 z"
                 id="path3024" />
              <ellipse
                 transform="matrix(0.80338,0.22325,-0.22325,0.80338,256.9,-127.89)"
                 style="color:#000000;opacity:0.3;fill:#ffffff;filter:url(#filter4014)"
                 id="path3018"
                 cx="642.47882"
                 cy="12.447033"
                 rx="23.305084"
                 ry="16.154661" />
              <ellipse
                 transform="matrix(0.80338,0.22325,-0.22325,0.80338,324.11,-102.18)"
                 style="color:#000000;opacity:0.3;fill:#ffffff;filter:url(#filter4018)"
                 id="path3022"
                 cx="642.47882"
                 cy="12.447033"
                 rx="23.305084"
                 ry="16.154661" />
            </g>
            <path
               d="m 805.61,31.467 c 0,0 -4.226,-10.452 -7.4905,-14.981 -3.097,-4.2968 -11.236,-11.236 -11.236,-11.236 0,0 -4.3773,-1.5564 -5.9924,-0.37453 -1.2462,0.91188 -1.1236,4.4943 -1.1236,4.4943 0,0 9.6982,5.1096 13.858,8.6141 4.5985,3.8745 11.985,13.483 11.985,13.483 z"
               inkscape:connector-curvature="0"
               style="opacity:0.7;fill:#ffffff;filter:url(#filter4124)"
               sodipodi:nodetypes="cacacac"
               id="path4108" />
            <path
               d="m 844.54,30.191 c 0,0 10.323,4.2689 15.095,9.5339 10.489,11.572 8.4746,30.705 8.4746,30.705 0,0 -5.1512,-17.725 -9.9805,-25.454 -3.5471,-5.6768 -13.589,-14.785 -13.589,-14.785 z"
               inkscape:connector-curvature="0"
               style="opacity:0.7;fill:#ffffff;filter:url(#filter4120)"
               sodipodi:nodetypes="cscac"
               id="path4110" />
            <path
               inkscape:connector-curvature="0"
               style="color:#000000;fill:url(#radialGradient5129);fill-opacity:0.87058997"
               d="m 758.59,145.57 c -1.8352,-0.82829 -3.9013,-0.21361 -4.615,1.3675 -0.43484,0.96342 -0.2674,2.0628 0.34514,2.9639 0.64244,-0.05 1.3277,0.0609 1.9834,0.35684 0.71529,0.32285 1.2862,0.81752 1.6786,1.3939 1.1572,-0.0889 2.176,-0.69927 2.6352,-1.7166 0.71365,-1.5812 -0.19219,-3.5372 -2.0274,-4.3656 z"
               id="path4167" />
          </g>
        </g>
      </g>
    </g>
  </g>
</svg>
